<?xml version="1.0" standalone="no"?>
<!DOCTYPE svg PUBLIC "-//W3C//DTD SVG 20010904//EN"
 "http://www.w3.org/TR/2001/REC-SVG-20010904/DTD/svg10.dtd">
<svg version="1.0" xmlns="http://www.w3.org/2000/svg"
 width="800.000000pt" height="800.000000pt" viewBox="0 0 800.000000 800.000000"
 preserveAspectRatio="xMidYMid meet">
<g transform="translate(0.000000,800.000000) scale(0.050000,-0.050000)"
fill="#0a1a2f" stroke="none">
<path d="M0 8000 l0 -8000 8000 0 8000 0 0 8000 0 8000 -8000 0 -8000 0 0
-8000z m8480 4840 c1855 -361 2584 -2650 1277 -4011 -1529 -1593 -4170 -539
-4163 1661 5 1541 1363 2646 2886 2350z m-4560 -5490 c0 -41 -10 -50 -55 -50
-80 0 -185 -70 -187 -125 -1 -25 -1 -321 0 -658 1 -337 2 -673 2 -745 0 -206
20 -219 337 -208 376 12 468 66 601 352 38 82 59 104 95 104 59 0 59 2 -13
-343 -33 -158 -60 -289 -60 -292 0 -3 -369 -5 -820 -5 l-820 0 0 50 c0 39 10
50 47 50 217 0 217 0 214 914 -3 908 -2 906 -214 906 -37 0 -47 11 -47 50 l0
50 460 0 460 0 0 -50z m2076 6 c-4 -32 -24 -48 -70 -58 -36 -7 -88 -28 -115
-46 l-51 -33 0 -826 c0 -931 -8 -885 155 -911 58 -10 76 -23 81 -57 l7 -45
-460 0 c-451 0 -460 1 -457 41 2 26 21 44 53 51 210 46 201 2 201 923 l0 798
-47 44 c-26 25 -80 50 -120 56 -60 10 -73 21 -73 60 l0 47 451 0 452 0 -7 -44z
m1495 -716 c211 -475 344 -749 353 -732 17 30 524 1202 596 1377 l47 115 317
0 c304 0 316 -2 316 -41 0 -41 -9 -47 -104 -68 -153 -33 -158 -83 -96 -871 74
-929 68 -903 227 -935 64 -12 84 -26 89 -61 l7 -44 -452 0 c-436 0 -451 1
-451 40 0 27 17 43 55 50 30 6 87 27 125 46 l70 34 0 190 c0 225 -73 1200 -90
1200 -6 0 -109 -227 -229 -505 -120 -278 -271 -629 -337 -780 l-120 -275 -93
0 -94 0 -111 255 c-62 140 -213 489 -336 775 -243 562 -260 594 -260 489 0
-38 -9 -190 -19 -339 -76 -1091 -79 -1041 63 -1070 120 -24 136 -32 136 -71 0
-37 -18 -39 -360 -39 -342 0 -360 2 -360 38 0 28 19 43 65 53 105 22 168 63
193 124 35 85 140 1479 118 1561 -20 72 -115 144 -191 144 -35 0 -45 12 -45
50 l0 50 317 0 316 0 338 -760z m2756 635 c60 -69 344 -404 632 -745 287 -341
530 -623 540 -626 10 -4 16 267 14 621 -3 720 -2 713 -168 761 -71 21 -97 39
-101 71 -7 43 -4 43 355 43 l361 0 0 -47 c0 -40 -13 -50 -78 -60 -53 -9 -95
-33 -130 -74 l-52 -62 -2 -754 c0 -414 0 -814 2 -889 l3 -136 -136 6 -135 6
-231 272 c-127 150 -422 497 -656 772 -233 275 -439 512 -456 527 -29 24 -31
-31 -24 -642 10 -784 14 -799 205 -838 42 -9 62 -26 66 -57 l7 -44 -362 0
c-344 0 -361 2 -361 39 0 29 23 45 93 65 179 51 176 37 182 832 7 872 -19 984
-228 984 -37 0 -47 11 -47 50 l0 50 299 0 298 0 110 -125z m2893 75 c0 -40
-10 -50 -51 -50 -190 0 -189 6 -189 -922 0 -901 -9 -853 159 -898 60 -16 81
-32 81 -61 0 -38 -16 -39 -450 -39 -435 0 -450 1 -450 40 0 27 18 43 55 51
215 47 205 2 205 915 0 899 4 875 -166 909 -65 12 -85 26 -90 61 l-7 44 452 0
451 0 0 -50z"/>
<path d="M7720 12599 c-318 -40 -694 -186 -952 -370 -156 -111 -158 -90 17
-264 l146 -145 99 73 c198 143 581 287 763 287 l67 0 0 220 c0 121 -2 219 -5
217 -3 -1 -63 -9 -135 -18z"/>
<path d="M8127 12590 c-5 -13 -6 -108 -3 -212 l6 -188 60 -6 c226 -24 545
-144 767 -288 l126 -83 151 152 152 151 -128 94 c-307 226 -1089 489 -1131
380z"/>
<path d="M6341 11826 c-245 -277 -461 -801 -461 -1115 l0 -71 105 0 c96 0 110
6 161 70 30 38 81 83 112 99 43 22 63 53 80 125 32 130 184 434 276 554 42 54
85 110 95 124 19 26 -27 77 -233 264 l-51 46 -84 -96z"/>
<path d="M7660 11892 c-160 -37 -298 -95 -428 -182 l-114 -76 61 -63 c76 -78
81 -165 15 -228 -67 -62 -124 -54 -203 32 -67 74 -69 74 -100 35 -129 -163
-213 -311 -271 -479 l-35 -102 86 -94 85 -95 191 0 190 0 33 113 c79 270 325
512 581 569 l109 24 0 287 c0 328 16 308 -200 259z"/>
<path d="M8124 11638 l6 -283 110 -34 c61 -19 140 -50 178 -69 l67 -36 198
197 198 197 -55 45 c-101 82 -322 185 -478 226 -249 63 -230 84 -224 -243z"/>
<path d="M9426 11755 l-143 -145 60 -70 c105 -121 203 -284 270 -450 l66 -160
88 6 87 7 22 -85 c27 -107 23 -113 -87 -129 l-90 -14 5 -192 6 -193 90 -10 90
-10 -6 -80 c-9 -130 -14 -136 -110 -122 l-86 13 -46 -145 c-55 -173 -178 -411
-277 -536 -40 -49 -79 -99 -88 -111 -9 -12 50 -80 143 -165 l158 -144 117 151
c595 762 606 1848 25 2588 -135 172 -120 172 -294 -4z"/>
<path d="M8876 11208 l-193 -191 67 -124 c150 -277 136 -611 -38 -869 l-67
-100 207 -206 c205 -204 207 -205 248 -168 64 58 129 172 106 187 -184 119
-196 141 -115 229 54 58 60 57 163 -19 l65 -48 28 56 c35 70 71 229 78 345 l5
90 -136 6 -136 6 6 94 6 94 134 6 135 6 -12 64 c-62 347 -86 385 -207 324
-111 -56 -149 -50 -191 31 -39 76 -43 68 81 139 129 74 128 70 49 165 -79 96
-58 105 -283 -117z"/>
<path d="M7840 11081 c-676 -206 -542 -1181 163 -1181 442 0 758 551 510 889
-45 62 -284 -163 -276 -260 22 -254 -335 -368 -464 -148 -94 159 67 420 227
369 39 -12 307 243 287 274 -33 54 -333 92 -447 57z"/>
<path d="M6355 10598 c-44 -25 -46 -124 -2 -168 46 -46 130 -30 165 33 57 101
-58 197 -163 135z"/>
<path d="M5860 10354 c0 -549 352 -1211 840 -1579 760 -574 1916 -574 2596 -1
l66 56 -149 148 -149 147 -155 -96 c-85 -53 -229 -125 -320 -159 -115 -43
-181 -81 -219 -127 -129 -152 -311 -170 -455 -43 -53 47 -111 80 -140 80 -79
0 -346 74 -455 126 -56 27 -106 40 -112 30 -7 -10 -33 -4 -59 13 -71 47 -143
39 -181 -19 -62 -95 -245 -65 -252 41 -6 88 -52 149 -113 149 -75 1 -96 19
-120 108 -26 96 -2 152 68 152 76 0 79 48 10 149 -96 138 -198 366 -236 527
-24 98 -46 148 -69 155 -19 6 -65 47 -102 90 -71 83 -294 124 -294 53z"/>
<path d="M6664 10287 l-86 -91 33 -113 c40 -137 166 -383 204 -398 16 -6 51
17 81 53 74 87 210 69 221 -29 10 -93 79 -154 157 -140 114 22 193 -169 101
-242 -133 -104 -44 -186 283 -259 142 -32 148 -32 168 4 110 197 363 241 508
88 31 -33 66 -60 78 -60 43 0 239 88 346 155 l108 68 -215 216 -214 215 -114
-46 c-486 -196 -1038 78 -1164 577 l-24 95 -192 -1 -193 -1 -86 -91z"/>
<path d="M6820 9430 c-152 -162 104 -389 262 -232 70 71 76 154 17 229 -59 75
-210 76 -279 3z"/>
<path d="M8050 9000 c-45 -72 7 -172 81 -157 53 11 88 79 68 132 -19 47 -124
65 -149 25z"/>
</g>
</svg>
