<svg
  xmlns="http://www.w3.org/2000/svg"
  viewBox="0 0 800 800"
  preserveAspectRatio="xMidYMid meet"
>
  <g
    transform="translate(0,800) scale(0.05,-0.05)"
    fill="#0a1a2f"
    stroke="none"
  >
    <path d="M7770 12879 c-2000 -167 -2914 -2654 -1502 -4088 1277 -1299 3494 -767 4041 969 518 1646 -799 3264 -2539 3119z m90 -479 l0 -220 -67 0 c-182 0 -565 -144 -763 -287 l-99 -73 -146 145 c-175 174 -173 153 -17 264 258 184 634 330 952 370 72 9 132 17 135 18 3 2 5 -96 5 -217z m733 129 c221 -64 499 -197 665 -319 l128 -94 -152 -151 -151 -152 -126 83 c-222 144 -541 264 -767 288 l-60 6 -6 188 c-3 104 -2 199 3 212 13 33 245 2 466 -61z m-1965 -795 c74 -70 96 -102 81 -122 -10 -14 -53 -70 -95 -124 -92 -120 -244 -424 -276 -554 -17 -72 -37 -103 -80 -125 -31 -16 -82 -61 -112 -99 -51 -64 -65 -70 -161 -70 l-105 0 0 71 c0 314 216 838 461 1115 l84 96 51 -46 c28 -25 96 -89 152 -142z m1232 -101 l0 -287 -109 -24 c-256 -57 -502 -299 -581 -569 l-33 -113 -190 0 -191 0 -85 95 -86 94 35 102 c58 168 142 316 271 479 31 39 33 39 100 -35 79 -86 136 -94 203 -32 66 63 61 150 -15 228 l-61 63 114 76 c130 87 268 145 428 182 216 49 200 69 200 -259z m488 248 c156 -41 377 -144 478 -226 l55 -45 -198 -197 -198 -197 -67 36 c-38 19 -117 50 -178 69 l-110 34 -6 283 c-6 327 -25 306 224 243z m1372 -122 c581 -740 570 -1826 -25 -2588 l-117 -151 -158 144 c-93 85 -152 153 -143 165 9 12 48 62 88 111 99 125 222 363 277 536 l46 145 86 -13 c96 -14 101 -8 110 122 l6 80 -90 10 -90 10 -6 193 -5 192 90 14 c110 16 114 22 87 129 l-22 85 -87 -7 -88 -6 -66 160 c-67 166 -165 329 -270 450 l-60 70 143 145 c174 176 159 176 294 4z m-561 -434 c79 -95 80 -91 -49 -165 -124 -71 -120 -63 -81 -139 42 -81 80 -87 191 -31 121 61 145 23 207 -324 l12 -64 -135 -6 -134 -6 -6 -94 -6 -94 136 -6 136 -6 -5 -90 c-7 -116 -43 -275 -78 -345 l-28 -56 -65 48 c-103 76 -109 77 -163 19 -81 -88 -69 -110 115 -229 23 -15 -42 -129 -106 -187 -41 -37 -43 -36 -248 168 l-207 206 67 100 c174 258 188 592 38 869 l-67 124 193 191 c225 222 204 213 283 117z m-983 -256 c56 -16 106 -37 111 -45 20 -31 -248 -286 -287 -274 -160 51 -321 -210 -227 -369 129 -220 486 -106 464 148 -8 97 231 322 276 260 374 -510 -385 -1151 -899 -759 -516 394 -67 1226 562 1039z m-1663 -501 c31 -47 32 -58 5 -105 -58 -105 -198 -64 -198 57 0 105 135 137 193 48z m-359 -267 c37 -43 83 -84 102 -90 23 -7 45 -57 69 -155 38 -161 140 -389 236 -527 69 -101 66 -149 -10 -149 -70 0 -94 -56 -68 -152 24 -89 45 -107 120 -108 61 0 107 -61 113 -149 7 -106 190 -136 252 -41 38 58 110 66 181 19 26 -17 52 -23 59 -13 6 10 56 -3 112 -30 109 -52 376 -126 455 -126 29 0 87 -33 140 -80 144 -127 326 -109 455 43 38 46 104 84 219 127 91 34 235 106 320 159 l155 96 149 -147 149 -148 -66 -56 c-680 -573 -1836 -573 -2596 1 -488 368 -840 1030 -840 1579 0 71 223 30 294 -53z m1005 -16 c126 -499 678 -773 1164 -577 l114 46 214 -215 215 -216 -108 -68 c-107 -67 -303 -155 -346 -155 -12 0 -47 27 -78 60 -145 153 -398 109 -508 -88 -20 -36 -26 -36 -168 -4 -327 73 -416 155 -283 259 92 73 13 264 -101 242 -78 -14 -147 47 -157 140 -11 98 -147 116 -221 29 -30 -36 -65 -59 -81 -53 -38 15 -164 261 -204 398 l-33 113 86 91 86 91 193 1 192 1 24 -95z m-60 -858 c135 -172 -96 -378 -260 -232 -130 116 -57 285 123 285 79 0 102 -9 137 -53z m1100 -452 c20 -53 -15 -121 -68 -132 -74 -15 -126 85 -81 157 25 40 130 22 149 -25z" />
  </g>
</svg>
