<svg
  xmlns="http://www.w3.org/2000/svg"
  viewBox="0 0 800 800"
  preserveAspectRatio="xMidYMid meet"
>
  <g
    transform="translate(0,800) scale(0.05,-0.05)"
    fill="#0a1a2f"
    stroke="none"
  >
    <path d="M3000 7350 c0 -39 10 -50 47 -50 212 0 211 2 214 -906 3 -914 3 -914 -214 -914 -37 0 -47 -11 -47 -50 l0 -50 820 0 c451 0 820 2 820 5 0 3 27 134 60 292 72 345 72 343 13 343 -36 0 -57 -22 -95 -104 -133 -286 -225 -340 -601 -352 -317 -11 -337 2 -337 208 0 72 -1 408 -2 745 -1 337 -1 633 0 658 2 55 107 125 187 125 45 0 55 9 55 50 l0 50 -460 0 -460 0 0 -50z" />
    <path d="M5100 7353 c0 -39 13 -50 73 -60 40 -6 94 -31 120 -56 l47 -44 0 -798 c0 -921 9 -877 -201 -923 -32 -7 -51 -25 -53 -51 -3 -40 6 -41 457 -41 l460 0 -7 45 c-5 34 -23 47 -81 57 -163 26 -155 -20 -155 911 l0 826 51 33 c27 18 79 39 115 46 46 10 66 26 70 58 l7 44 -452 0 -451 0 0 -47z" />
    <path d="M6520 7350 c0 -38 10 -50 45 -50 76 0 171 -72 191 -144 22 -82 -83 -1476 -118 -1561 -25 -61 -88 -102 -193 -124 -46 -10 -65 -25 -65 -53 0 -36 18 -38 360 -38 342 0 360 2 360 39 0 39 -16 47 -136 71 -142 29 -139 -21 -63 1070 10 149 19 301 19 339 0 105 17 73 260 -489 123 -286 274 -635 336 -775 l111 -255 94 0 93 0 120 275 c66 151 217 502 337 780 120 278 223 505 229 505 17 0 90 -975 90 -1200 l0 -190 -70 -34 c-38 -19 -95 -40 -125 -46 -38 -7 -55 -23 -55 -50 0 -39 15 -40 451 -40 l452 0 -7 44 c-5 35 -25 49 -89 61 -159 32 -153 6 -227 935 -62 788 -57 838 96 871 95 21 104 27 104 68 0 39 -12 41 -316 41 l-317 0 -47 -115 c-72 -175 -579 -1347 -596 -1377 -9 -17 -142 257 -353 732 l-338 760 -316 0 -317 0 0 -50z" />
    <path d="M9540 7350 c0 -39 10 -50 47 -50 209 0 235 -112 228 -984 -6 -795 -3 -781 -182 -832 -70 -20 -93 -36 -93 -65 0 -37 17 -39 361 -39 l362 0 -7 44 c-4 31 -24 48 -66 57 -191 39 -195 54 -205 838 -7 611 -5 666 24 642 17 -15 223 -252 456 -527 234 -275 529 -622 656 -772 l231 -272 135 -6 136 -6 -3 136 c-2 75 -2 475 -2 889 l2 754 52 62 c35 41 77 65 130 74 65 10 78 20 78 60 l0 47 -361 0 c-359 0 -362 0 -355 -43 4 -32 30 -50 101 -71 166 -48 165 -41 168 -761 2 -354 -4 -625 -14 -621 -10 3 -253 285 -540 626 -288 341 -572 676 -632 745 l-110 125 -298 0 -299 0 0 -50z" />
    <path d="M12244 7356 c5 -35 25 -49 90 -61 170 -34 166 -10 166 -909 0 -913 10 -868 -205 -915 -37 -8 -55 -24 -55 -51 0 -39 15 -40 450 -40 434 0 450 1 450 39 0 29 -21 45 -81 61 -168 45 -159 -3 -159 898 0 928 -1 922 189 922 41 0 51 10 51 50 l0 50 -451 0 -452 0 7 -44z" />
  </g>
</svg>
